# xmcd CD database file
#
# Track frame offsets:
#	150
#	19000
#	38261
#	54727
#	70282
#	82546
#	104791
#	125073
#	143464
#	164223
#	179415
#	194940
#	223285
#
# Disc length: 3392 seconds
#
# Revision: 0
# Processed by: cddbd v1.5.2PL0 Copyright (c) Steve Scherf et al.
# Submitted via: CDex 1.51
#
DISCID=c40d3e0d
DTITLE=Sultans Of Slide - Lightning Strikes
DYEAR=2011
DGENRE=Blues
TTITLE0=Strange Angel
TTITLE1=Drive All Night
TTITLE2=Lucky Again
TTITLE3=Stupid Trouble
TTITLE4=Entre Amis
TTITLE5=Lightning Strikes
TTITLE6=Rolling Stone
TTITLE7=Stumptown Slither
TTITLE8=Never Happy
TTITLE9=Dime At A Time
TTITLE10=Different Day Same Scene
TTITLE11=The Highway Is Like A Woman
TTITLE12=Going Upstairs
EXTD=YEAR: 2011
EXTT0=
EXTT1=
EXTT2=
EXTT3=
EXTT4=
EXTT5=
EXTT6=
EXTT7=
EXTT8=
EXTT9=
EXTT10=
EXTT11=
EXTT12=
PLAYORDER=
